HIERARCHY
ROOT Hips
{
  OFFSET 0 0 0
  CHANNELS 6 Xposition Yposition Zposition Zrotation Xrotation Yrotation
  JOINT Spine
  {
    OFFSET 0 10 0
    CHANNELS 3 Zrotation Xrotation Yrotation
    JOINT Neck
    {
      OFFSET 0 30 0
      CHANNELS 3 Zrotation Xrotation Yrotation
      JOINT Head
      {
        OFFSET 0 8 0
        CHANNELS 3 Zrotation Xrotation Yrotation
        End Site
        {
          OFFSET 0 10 0
        }
      }
    }
    JOINT LeftArm
    {
      OFFSET 15 30 0
      CHANNELS 3 Zrotation Xrotation Yrotation
      JOINT LeftForeArm
      {
        OFFSET 25 0 0
        CHANNELS 3 Zrotation Xrotation Yrotation
        JOINT LeftHand
        {
          OFFSET 25 0 0
          CHANNELS 3 Zrotation Xrotation Yrotation
          End Site
          {
            OFFSET 10 0 0
          }
        }
      }
    }
    JOINT RightArm
    {
      OFFSET -15 30 0
      CHANNELS 3 Zrotation Xrotation Yrotation
      JOINT RightForeArm
      {
        OFFSET -25 0 0
        CHANNELS 3 Zrotation Xrotation Yrotation
        JOINT RightHand
        {
          OFFSET -25 0 0
          CHANNELS 3 Zrotation Xrotation Yrotation
          End Site
          {
            OFFSET -10 0 0
          }
        }
      }
    }
  }
  JOINT LeftUpLeg
  {
    OFFSET 10 -10 0
    CHANNELS 3 Zrotation Xrotation Yrotation
    JOINT LeftLeg
    {
      OFFSET 0 -35 0
      CHANNELS 3 Zrotation Xrotation Yrotation
      JOINT LeftToe
      {
        OFFSET 0 -40 0
        CHANNELS 3 Zrotation Xrotation Yrotation
        JOINT LeftToeEnd
        {
          OFFSET 0 0 0
          CHANNELS 3 Zrotation Xrotation Yrotation
          End Site
          {
            OFFSET 0 0 15
          }
        }
      }
    }
  }
  JOINT RightUpLeg
  {
    OFFSET -10 -10 0
    CHANNELS 3 Zrotation Xrotation Yrotation
    JOINT RightLeg
    {
      OFFSET 0 -35 0
      CHANNELS 3 Zrotation Xrotation Yrotation
      JOINT RightToe
      {
        OFFSET 0 -40 0
        CHANNELS 3 Zrotation Xrotation Yrotation
        JOINT RightToeEnd
        {
          OFFSET 0 0 0
          CHANNELS 3 Zrotation Xrotation Yrotation
          End Site
          {
            OFFSET 0 0 15
          }
        }
      }
    }
  }
}
MOTION
Frames:	15
Frame Time:	0.0333333
7.50932 84.8013 10.6955 2.31752 -1.65866 -46.2106 0.681319 10.4349 -3.27848 -9.94668 -23.1968 -5.48388 9.63943 31.2509 -6.82997 -81.1568 27.9472 -10.8689 17.2272 -5.01738 -27.6882 -0.523543 7.89153 -1.84284 91.2617 7.94179 -0.0902605 -14.9039 -3.10925 23.8124 0.207926 11.8179 -0.159989 -6.78201 6.18903 -5.58186 0.816062 37.4312 -0.677916 11.1724 -25.0711 -2.68224 -7.95139e-016 -6.36111e-015 -0 -0.192855 -33.7238 3.7274 0.202287 38.371 0.681503 -0.933678 -7.20412 -3.67043 -0 0 3.18055e-015 
4.65945 85.0873 12.8397 1.77356 -1.46458 -46.1826 1.25111 10.1702 -2.94502 -10.0826 -23.136 -5.48651 9.98214 31.5195 -7.06106 -83.3571 27.0118 -8.67327 16.8353 -4.73979 -26.8875 -0.498444 7.79312 -1.85166 91.4551 5.64916 -0.353562 -14.2341 -2.78451 22.5402 0.202892 13.243 -0.166193 -5.43582 4.96952 -4.29348 1.24914 42.029 -1.01321 10.8799 -18.9815 -6.77079 -4.41391e-032 7.95139e-016 3.18055e-015 0.64819 -31.21 3.14842 0.145834 39.1145 0.778995 -1.62213 -9.19274 -3.03857 -1.98785e-016 1.98785e-016 3.18055e-015 
1.81246 85.6355 14.8741 0.787536 -1.23828 -45.4763 1.80456 10.4381 -3.08613 -9.92386 -22.9602 -5.79161 10.5481 31.3498 -7.49531 -84.292 26.8688 -7.37335 16.1146 -4.25557 -25.4196 -0.538292 8.30448 -1.83223 91.9134 4.65344 -0.601345 -13.9523 -2.65353 21.9949 0.182703 13.7265 -0.173245 -3.2874 1.17304 -3.79284 1.90324 49.9961 -1.08668 12.1086 -13.2102 -11.0619 3.18055e-015 0 -3.18055e-015 2.41418 -27.1662 3.93545 0.0838728 37.8894 0.954627 -2.35883 -10.8179 -4.59629 -4.96962e-017 4.96962e-017 -9.54166e-015 
-0.850441 86.1053 16.8652 -0.755545 -0.40008 -44.1446 3.71509 10.8016 -3.33709 -10.6965 -22.9761 -6.36688 11.7302 31.1633 -8.74764 -84.6928 27.7905 -6.76722 15.4896 -3.8826 -24.212 -0.358242 10.4979 -1.85616 91.8228 4.65056 -0.794289 -14.0318 -2.69375 22.1577 0.182715 13.8121 -0.174641 -0.594737 -3.21849 -4.30837 2.49335 56.7531 -2.55587 16.9535 -9.76104 -16.0007 -1.59028e-015 5.96354e-015 -0 4.96183 -22.4595 4.44532 0.0386952 35.3499 1.16178 -3.28059 -11.789 -7.48122 6.21202e-018 -6.21202e-018 -0 
-3.24141 86.2175 18.7314 -2.26349 0.056399 -43.1644 5.46045 11.7099 -3.41999 -11.5938 -23.1725 -6.72072 12.6036 30.8841 -9.54241 -84.9997 28.5271 -6.5553 14.9364 -3.5726 -23.1635 -0.394926 12.4775 -1.7282 91.2011 6.58633 -0.824663 -14.3756 -2.85446 22.7847 0.197735 12.8056 -0.156016 1.72933 -8.4697 -3.68229 3.08242 62.7383 -3.26993 12.3621 -8.08971 -16.2686 -0 -2.38542e-015 -0 6.7812 -18.6006 4.27936 0.000348692 34.1279 1.38189 -4.04683 -13.5877 -9.00273 -0 0 6.36111e-015 
-5.61819 86.2346 20.556 -3.00961 0.258893 -42.8463 6.11614 12.1931 -2.80399 -12.0312 -22.7836 -6.71978 13.0188 30.2404 -10.0051 -85.6222 27.9933 -6.10996 14.713 -3.43066 -22.7244 -0.380957 12.7908 -1.79367 90.5568 8.29817 -0.723253 -14.6151 -2.975 23.2515 0.191643 12.1143 -0.150187 3.57329 -13.3858 -1.63198 3.6915 67.7977 -4.22046 11.2841 -13.2462 -12.9279 3.18055e-015 -9.54166e-015 -6.36111e-015 7.83295 -15.7632 3.85843 -0.0371672 33.8409 1.55016 -4.78769 -15.4506 -9.63864 -2.48481e-017 -4.96962e-017 -0 
-7.94392 86.21 22.4159 -3.29117 0.158246 -43.5378 5.95561 12.6055 -1.15594 -12.5463 -22.1793 -6.47908 13.859 29.5921 -10.6651 -86.9392 25.3819 -5.5103 14.4152 -3.23181 -22.1093 -0.465614 14.0075 -1.74298 89.7679 10.3619 -0.416824 -14.8675 -3.10428 23.7367 0.185501 11.5051 -0.148844 4.7648 -17.5455 1.04261 3.8236 70.2301 -4.57293 11.3798 -16.3519 -7.19261 1.59028e-015 -1.59028e-015 -9.54166e-015 8.36286 -13.2357 3.91935 -0.0745373 33.7951 1.6964 -5.42268 -17.2477 -9.83729 1.65521e-032 1.49089e-016 -6.36111e-015 
-10.1981 86.1079 24.267 -3.72636 0.551611 -44.2448 6.27162 12.724 0.127734 -12.5385 -21.9626 -5.98796 13.778 29.9391 -10.5401 -88.0866 23.3472 -4.71599 14.3532 -3.17356 -21.9749 -0.5297 13.5319 -1.77893 88.6631 11.9968 0.401429 -14.9078 -3.12426 23.806 0.183508 11.5328 -0.149875 6.59383 -21.962 3.42598 3.4775 70.8332 -4.43413 11.7527 -18.8967 -3.50805 -1.59028e-015 1.59028e-015 -0 9.2092 -10.7206 3.76397 -0.10677 33.2355 1.85514 -5.81154 -18.867 -9.62798 9.93923e-017 0 -0 
-12.3722 85.9434 26.1456 -4.08257 0.98392 -44.7669 6.77009 12.8315 1.33916 -13.2456 -21.6361 -5.64258 14.312 30.0859 -10.7523 -89.0293 22.2324 -3.93351 14.5369 -3.27583 -22.3599 -0.435039 11.5335 -1.85005 87.2393 13.6508 1.37804 -15.1374 -3.24542 24.2613 0.18141 11.1495 -0.151927 7.5403 -25.8637 4.47463 2.64071 69.048 -3.78418 12.4882 -21.1315 0.383142 -4.41391e-032 7.95139e-016 3.18055e-015 9.887 -8.09962 3.47234 -0.128486 32.3256 1.9491 -6.50921 -20.2454 -9.6596 1.10348e-032 1.98785e-016 -3.18055e-015 
-14.4638 85.8034 28.0478 -4.33548 1.65826 -45.0999 7.3387 12.9203 2.55466 -13.1289 -21.9531 -5.23622 13.4871 30.4792 -10.5681 -89.7017 22.2584 -3.27237 14.6198 -3.33179 -22.5418 -0.459994 10.6202 -1.86244 85.8883 14.3757 2.6449 -15.4552 -3.40284 24.8777 0.181552 10.6022 -0.160865 8.13009 -29.147 4.65834 1.66641 64.8379 -3.00916 13.1174 -22.3834 3.26202 -2.38542e-015 1.98785e-016 -0 10.5589 -5.46907 3.01281 -0.128472 30.6625 2.06037 -6.91168 -21.2883 -9.575 2.98177e-016 -2.98177e-016 -9.54166e-015 
-16.5299 85.7683 30.0325 -4.41447 2.45095 -45.4059 8.14709 12.6398 3.32657 -12.8965 -22.2325 -4.41935 12.0389 30.9375 -9.80313 -90.6148 22.0803 -2.31783 14.7393 -3.4115 -22.8301 -0.436269 10.8969 -1.84876 84.5344 14.8887 3.66484 -15.9485 -3.67113 25.8935 0.184095 9.55781 -0.181333 8.44343 -31.8524 4.2958 0.781423 58.8243 -2.3605 13.5824 -22.9786 5.7955 -7.95139e-016 1.59028e-015 3.18055e-015 11.1276 -2.33721 2.98874 -0.0990677 27.7457 2.19306 -7.19085 -21.7491 -9.6364 -1.98785e-016 2.98177e-016 -9.54166e-015 
-18.5686 85.6692 32.0292 -4.18057 3.31338 -45.8802 8.63297 12.2389 4.07937 -13.4451 -22.5325 -4.28253 12.0633 30.8872 -9.74313 -91.4254 21.8214 -1.58191 14.7054 -3.39157 -22.7862 -0.482025 11.201 -1.8593 83.2755 15.5295 4.90876 -16.4684 -3.95604 26.9229 0.18982 8.42956 -0.172891 8.28568 -33.9906 2.33065 0.015195 51.4794 -1.88406 13.4489 -22.0452 7.35029 1.59028e-015 -1.59028e-015 -0 11.5835 0.0864672 3.23261 -0.0701374 25.5296 2.29468 -7.42974 -22.0666 -9.95326 1.98785e-016 -1.98785e-016 -3.18055e-015 
-20.6082 85.4856 34.0515 -3.78352 4.01689 -46.512 8.80363 11.8379 5.05494 -13.8889 -22.4337 -4.15063 12.1994 30.2647 -9.99492 -91.8946 21.5676 -1.15063 14.5614 -3.31051 -22.5168 -0.444129 11.1948 -1.88865 82.0569 16.5326 5.67767 -17.1926 -4.3766 28.3665 0.202138 7.17974 -0.154363 7.94206 -36.7312 -0.72184 -0.613645 45.7265 -2.5913 8.14003 -20.4955 8.22914 -1.59028e-015 -3.18055e-015 -6.36111e-015 11.6293 2.31024 2.93928 -0.0463649 23.6525 2.40205 -7.46966 -22.5394 -9.95391 3.97569e-016 3.97569e-016 3.18055e-015 
-22.6313 85.2142 36.1995 -3.88514 4.43709 -47.3374 9.20001 11.9128 5.61783 -14.2603 -22.4709 -3.89611 12.2686 29.9206 -9.68646 -92.8264 20.3098 -0.455927 14.4159 -3.2191 -22.2265 -0.419205 11.1777 -1.89982 80.9004 17.453 6.49531 -17.8752 -4.80161 29.7508 0.198795 6.60384 -0.143417 7.06842 -38.7056 -5.34435 -0.865076 42.169 -2.81416 3.6132 -19.9669 10.0909 -1.59028e-015 -4.77083e-015 3.18055e-015 11.6742 5.27114 2.31043 -0.0175935 21.6697 2.54369 -7.30571 -22.9256 -9.52421 -1.98785e-016 -3.97569e-016 -3.18055e-015 
-24.5638 84.8909 38.3174 -3.50644 4.64107 -47.8351 8.91604 11.6662 6.04907 -13.977 -22.4328 -3.6601 12.0051 29.8039 -9.59984 -93.4557 18.9703 0.036121 14.1777 -3.07448 -21.7575 -0.494497 12.1432 -1.84876 80.1727 17.8963 7.3289 -18.4491 -5.16305 30.8836 0.222824 5.81862 -0.107477 7.17648 -39.8892 -5.31841 -1.01354 40.8129 -2.74682 1.28386 -20.2695 8.97749 3.18055e-015 -1.59028e-015 3.18055e-015 11.3229 7.23344 2.51541 -0.00980511 21.0713 2.65851 -7.2046 -23.5407 -9.60812 -7.95139e-016 3.97569e-016 9.54166e-015 
